<?xml version="1.0" encoding="UTF-8"?>
<svg version="1.1" xmlns="http://www.w3.org/2000/svg" width="553" height="291">
<path d="M0 0 C182.49 0 364.98 0 553 0 C553 96.03 553 192.06 553 291 C370.51 291 188.02 291 0 291 C0 194.97 0 98.94 0 0 Z " fill="#FDFEFE" transform="translate(0,0)"/>
<path d="M0 0 C2.69894896 2.69894896 2.62415395 4.74492368 3.25 8.5 C9.54531561 42.99748455 28.5582827 75.19960376 57.16162109 95.72998047 C71.82744914 105.86167203 88.92615173 115.73266053 106.68359375 118.54296875 C109 119 109 119 111.9296875 120.01171875 C128.70377189 125.41101055 153.29107943 123.87623117 170 119 C172.04091663 118.51764868 174.08258201 118.038454 176.125 117.5625 C185.21611567 115.22927483 193.72955585 112.45356561 201.94140625 107.85546875 C204 107 204 107 207 108 C184.29486094 129.92949767 152.2368552 141.77720496 121 143 C120.32662598 143.02723145 119.65325195 143.05446289 118.95947266 143.08251953 C83.16240052 144.33372517 51.17947803 132.16791328 24 109 C23.19175781 108.33742188 22.38351563 107.67484375 21.55078125 106.9921875 C11.11879539 98.11599231 2.80824574 86.83635383 -4 75 C-4.35255859 74.40993164 -4.70511719 73.81986328 -5.06835938 73.21191406 C-10.92019575 63.29602265 -13.24177755 55.73479784 -12 44 C-11.91234375 42.83339844 -11.8246875 41.66679687 -11.734375 40.46484375 C-10.96388184 32.76828703 -9.20903707 25.49621477 -7.125 18.0625 C-6.75834229 16.74838135 -6.75834229 16.74838135 -6.38427734 15.40771484 C-4.77271761 9.91752142 -2.70095963 5.04529904 0 0 Z " fill="#2077BD" transform="translate(60,130)"/>
<path d="M0 0 C-0.3106694 2.70855454 -0.62347745 5.41683388 -0.9375 8.125 C-1.02451172 8.88554688 -1.11152344 9.64609375 -1.20117188 10.4296875 C-1.57081624 13.60589091 -1.95063596 16.73978099 -2.546875 19.8828125 C-4.51866009 33.44733408 -3.25226403 47.59889715 -1.1875 61.0625 C-1.0222583 62.14950195 -0.8570166 63.23650391 -0.68676758 64.35644531 C0.25731478 70.02715928 1.51615259 74.82258719 4 80 C4.63973364 81.76556409 5.26581635 83.53616361 5.875 85.3125 C17.68396501 117.78715377 44.60076244 144.34798711 75.30859375 159.10546875 C94.63994507 168.00054189 114.92557326 170.74195719 136 172 C133.653591 174.346409 132.17650031 174.70069381 129 175.5625 C128.113125 175.81128906 127.22625 176.06007812 126.3125 176.31640625 C91.79115144 183.4405053 56.32372843 174.54396538 27 156 C4.57023004 140.73763774 -12.46490611 120.98708167 -23 96 C-23.69222656 94.38158203 -23.69222656 94.38158203 -24.3984375 92.73046875 C-30.60860552 77.46851036 -34.30916965 60.85248704 -34.5625 44.375 C-34.61212891 43.40304688 -34.66175781 42.43109375 -34.71289062 41.4296875 C-34.82413844 33.54698506 -32.32155711 29.63360871 -27 24 C-26.08584016 22.93870381 -25.17291749 21.87633959 -24.26171875 20.8125 C-5.2125 0 -5.2125 0 0 0 Z " fill="#2076BD" transform="translate(112,66)"/>
<path d="M0 0 C25.74 0 51.48 0 78 0 C78 5.61 78 11.22 78 17 C57.87 17 37.74 17 17 17 C17 26.24 17 35.48 17 45 C36.14 45 55.28 45 75 45 C75 50.28 75 55.56 75 61 C55.86 61 36.72 61 17 61 C17 70.57 17 80.14 17 90 C37.13 90 57.26 90 78 90 C78 95.28 78 100.56 78 106 C52.26 106 26.52 106 0 106 C0 71.02 0 36.04 0 0 Z " fill="#2273B8" transform="translate(254,101)"/>
<path d="M0 0 C1.010625 0.78375 2.02125 1.5675 3.0625 2.375 C4.0215625 3.179375 4.0215625 3.179375 5 4 C3.6095501 7.10442031 1.98428402 9.3656443 -0.375 11.8125 C-0.96023438 12.43769531 -1.54546875 13.06289062 -2.1484375 13.70703125 C-4 15 -4 15 -5.92578125 14.8828125 C-9.28035009 13.45506757 -12.21633139 11.44825616 -15.26953125 9.47265625 C-24.48362141 4.5031112 -36.15363114 4.77977397 -46.265625 6.58203125 C-54.36451868 9.11582799 -61.08979576 14.45707553 -65.6640625 21.59765625 C-66.92320504 24.03862555 -68.02114039 26.4345721 -69 29 C-69.54720703 30.33224609 -69.54720703 30.33224609 -70.10546875 31.69140625 C-72.73972262 41.43469457 -72.78293872 55.97281531 -68 65 C-63.43406762 72.87353694 -57.06218265 78.56063626 -48.32470703 81.44335938 C-37.53380158 84.02719307 -24.50295035 83.7469551 -14.0625 79.875 C-10.78270114 77.80881372 -9.31971114 76.30886558 -8.39160156 72.50927734 C-7.5062394 65.88257809 -7.79936379 59.78150397 -8 53 C-17.57 53 -27.14 53 -37 53 C-37 48.05 -37 43.1 -37 38 C-22.15 38 -7.3 38 8 38 C8.165 45.115625 8.33 52.23125 8.5 59.5625 C8.57283203 61.79588135 8.64566406 64.0292627 8.72070312 66.33032227 C8.74408621 68.11731124 8.7644677 69.90434309 8.78125 71.69140625 C8.82217773 72.60563354 8.86310547 73.51986084 8.90527344 74.46179199 C8.90958259 78.43968113 8.8402489 80.97223739 6.26547241 84.12161255 C4.25119312 85.90382128 2.21476091 87.47714272 0 89 C-0.93585938 89.69609375 -1.87171875 90.3921875 -2.8359375 91.109375 C-3.67382812 91.65078125 -4.51171875 92.1921875 -5.375 92.75 C-6.20773437 93.30171875 -7.04046875 93.8534375 -7.8984375 94.421875 C-16.44646528 98.77124934 -24.50942673 99.47408951 -34 99.375 C-35.11117187 99.38660156 -36.22234375 99.39820313 -37.3671875 99.41015625 C-51.35325075 99.36079367 -64.78078522 94.78952202 -75 85 C-86.32197134 71.51189213 -90.22762198 55.60979445 -89.21142578 38.28710938 C-88.25739651 27.96684816 -85.28473279 18.34075906 -79 10 C-78.41347656 9.22140625 -77.82695312 8.4428125 -77.22265625 7.640625 C-58.68888585 -14.94859209 -22.65308258 -17.85826165 0 0 Z " fill="#2274B8" transform="translate(439,110)"/>
<path d="M0 0 C-1.34881983 2.78481094 -2.82543786 5.42089643 -4.4609375 8.046875 C-4.93273437 8.81 -5.40453125 9.573125 -5.890625 10.359375 C-6.87103261 11.93834726 -7.85277844 13.51648948 -8.8359375 15.09375 C-26.27487163 43.33724115 -29.66318821 74.3367385 -22.33203125 106.4296875 C-21.8888293 108.28665148 -21.44492171 110.14344732 -21 112 C-20.60361328 113.82917969 -20.60361328 113.82917969 -20.19921875 115.6953125 C-15.7200562 133.29038181 -4.53515012 149.19876442 8 162 C8.55993652 162.5870874 9.11987305 163.1741748 9.69677734 163.77905273 C13.52207798 167.72319455 17.48816126 171.0604332 22 174.1875 C22.5775 174.59935547 23.155 175.01121094 23.75 175.43554688 C27.70328572 178.21961305 31.77235594 180.65430464 36 183 C36 183.33 36 183.66 36 184 C26.49491132 184 19.13285312 179.43591612 11 175 C9.906875 174.41605469 8.81375 173.83210937 7.6875 173.23046875 C0.47209343 169.21877786 -5.89418276 164.54549153 -12 159 C-12.58185059 158.4740625 -13.16370117 157.948125 -13.76318359 157.40625 C-25.49954948 146.63950309 -34.80566403 134.81282319 -41.09887695 120.10424805 C-42.02388884 117.94421623 -43.00668324 115.81683968 -44 113.6875 C-51.71148736 95.99644077 -54.02712375 77.18935107 -53 58 C-52.93039063 56.68902344 -52.86078125 55.37804687 -52.7890625 54.02734375 C-51.5816533 40.62510164 -47.21605893 22.93072167 -39 12 C-35.57621847 9.55945829 -32.20590565 8.2908019 -28.1875 7.125 C-24.36684284 6.00102104 -20.55571703 4.86760677 -16.76953125 3.6328125 C-15.70472534 3.28839111 -15.70472534 3.28839111 -14.6184082 2.93701172 C-13.23378191 2.48796961 -11.85071976 2.03406768 -10.46948242 1.57470703 C-6.87225344 0.4210926 -3.78186356 -0.26182132 0 0 Z " fill="#2177BD" transform="translate(177,38)"/>
<path d="M0 0 C0.66 0.2165625 1.32 0.433125 2 0.65625 C-2.05371164 4.76957505 -6.26040079 8.67392279 -10.5390625 12.55078125 C-13.78254326 15.5031804 -16.905492 18.54632086 -20 21.65625 C-20.61101562 22.20925781 -21.22203125 22.76226562 -21.8515625 23.33203125 C-31.28095319 32.03448654 -38.98007564 43.88668951 -44 55.65625 C-44.62455078 57.02136719 -44.62455078 57.02136719 -45.26171875 58.4140625 C-56.31372956 84.36803384 -54.6090406 112.21299019 -48.55126953 139.14257812 C-47.93198211 141.96639711 -47.42882716 144.79740225 -47 147.65625 C-48.5 146.28125 -48.5 146.28125 -50 144.65625 C-50 143.99625 -50 143.33625 -50 142.65625 C-50.66 142.65625 -51.32 142.65625 -52 142.65625 C-52.93873691 140.63599095 -53.87592803 138.6150136 -54.8125 136.59375 C-55.33457031 135.46839844 -55.85664063 134.34304687 -56.39453125 133.18359375 C-68.4944116 106.5991851 -72.22759497 76.93814485 -64 48.65625 C-63.72285156 47.63144531 -63.44570312 46.60664062 -63.16015625 45.55078125 C-59.35562519 32.83979039 -53.30923965 19.34610919 -44.90234375 9.03515625 C-42.92629662 6.70980925 -42.92629662 6.70980925 -41.56640625 3.99609375 C-34.02260543 -8.1755749 -11.82247113 -3.32507001 0 0 Z " fill="#2177BD" transform="translate(231,40.34375)"/>
<path d="M0 0 C5.61 0 11.22 0 17 0 C17 34.98 17 69.96 17 106 C11.39 106 5.78 106 0 106 C0 71.02 0 36.04 0 0 Z " fill="#2575B9" transform="translate(488,101)"/>
<path d="M0 0 C1.17786719 0.68064868 2.34699499 1.37660227 3.5078125 2.0859375 C4.1177002 2.44623047 4.72758789 2.80652344 5.35595703 3.17773438 C10.01218159 5.9712219 14.43084182 9.01584353 18.6328125 12.4609375 C15.86119063 13.94567885 13.25725007 14.92300393 10.2109375 15.6875 C-6.19595839 19.97443312 -20.06124823 25.74345265 -33.3671875 36.4609375 C-34.346875 37.234375 -35.3265625 38.0078125 -36.3359375 38.8046875 C-53.98687684 53.64509314 -61.2722963 76.86185088 -66.3671875 98.4609375 C-68.88408174 94.68559615 -68.71123798 91.65026693 -68.6796875 87.2734375 C-68.67477295 86.47260742 -68.6698584 85.67177734 -68.66479492 84.84667969 C-68.13899725 57.50520049 -56.02295466 34.38729571 -36.6875 15.5234375 C-32.84010018 12.10352655 -28.6824463 9.25398527 -24.3671875 6.4609375 C-23.65304688 5.9865625 -22.93890625 5.5121875 -22.203125 5.0234375 C-15.14628618 0.44602854 -8.37847444 -3.82960432 0 0 Z " fill="#2177BD" transform="translate(258.3671875,54.5390625)"/>
<path d="M0 0 C0.66 0.33 1.32 0.66 2 1 C-4.6 7.6 -11.2 14.2 -18 21 C-18.66 20.67 -19.32 20.34 -20 20 C-13.33333333 13.33333333 -6.66666667 6.66666667 0 0 Z " fill="#DDEAF2" transform="translate(224,48)"/>
<path d="M0 0 C0.66 0.33 1.32 0.66 2 1 C-2.62 5.62 -7.24 10.24 -12 15 C-12.66 14.67 -13.32 14.34 -14 14 C-9.67106815 8.81580806 -5.23435005 4.27293882 0 0 Z " fill="#E1EDF4" transform="translate(226,89)"/>
<path d="M0 0 C0.33 0 0.66 0 1 0 C1.06058594 0.95261719 1.12117187 1.90523437 1.18359375 2.88671875 C1.26738281 4.14097656 1.35117188 5.39523438 1.4375 6.6875 C1.51871094 7.92886719 1.59992188 9.17023438 1.68359375 10.44921875 C1.90813656 13.90411733 1.90813656 13.90411733 2.66015625 16.83203125 C2.77230469 17.54746094 2.88445312 18.26289063 3 19 C2.34 19.66 1.68 20.32 1 21 C0.07811539 18.23434618 -0.11785222 16.61716298 -0.09765625 13.76953125 C-0.09282227 12.56586914 -0.09282227 12.56586914 -0.08789062 11.33789062 C-0.07951172 10.50451172 -0.07113281 9.67113281 -0.0625 8.8125 C-0.05798828 7.96751953 -0.05347656 7.12253906 -0.04882812 6.25195312 C-0.03705403 4.16793845 -0.0191189 2.08396023 0 0 Z " fill="#69A5D2" transform="translate(190,132)"/>
<path d="M0 0 C1.88391785 3.26545761 2.49287967 6.28111761 3 10 C1.5 8.625 1.5 8.625 0 7 C0 6.34 0 5.68 0 5 C-0.66 5 -1.32 5 -2 5 C-2 4.34 -2 3.68 -2 3 C-1.34 3 -0.68 3 0 3 C0 2.01 0 1.02 0 0 Z " fill="#5699CC" transform="translate(181,178)"/>
</svg>
