<?xml version="1.0" encoding="UTF-8"?>
<svg version="1.1" xmlns="http://www.w3.org/2000/svg" width="1920" height="1920">
<path d="M0 0 C633.6 0 1267.2 0 1920 0 C1920 633.6 1920 1267.2 1920 1920 C1286.4 1920 652.8 1920 0 1920 C0 1286.4 0 652.8 0 0 Z " fill="#FEFEFE" transform="translate(0,0)"/>
<path d="M0 0 C2.39789316 0.0008493 4.7957871 0.00036525 7.19367981 -0.00132751 C13.61142792 -0.00217708 20.02900271 0.0152775 26.44671106 0.03639436 C32.50189332 0.0534099 38.55706616 0.05627906 44.61226867 0.05934998 C56.58285306 0.06586929 68.55337511 0.08570566 80.52392578 0.11425781 C92.13232111 0.14191686 103.74069934 0.16309193 115.34912109 0.17578125 C116.42763477 0.17696351 116.42763477 0.17696351 117.52793659 0.17816965 C121.13602931 0.18208557 124.74412214 0.1858765 128.35221505 0.18960536 C158.14875339 0.22056003 187.94521891 0.27349769 217.74169922 0.34057617 C217.74169922 1.00057617 217.74169922 1.66057617 217.74169922 2.34057617 C217.08169922 2.34057617 216.42169922 2.34057617 215.74169922 2.34057617 C215.41169922 3.33057617 215.08169922 4.32057617 214.74169922 5.34057617 C213.19616699 6.86486816 213.19616699 6.86486816 211.21630859 8.49487305 C206.61943205 12.39790071 202.38632771 16.58610691 198.14794922 20.87182617 C197.35698853 21.66657349 196.56602783 22.4613208 195.75109863 23.28015137 C193.24550399 25.79786049 190.74319064 28.31879063 188.24169922 30.84057617 C184.94258242 34.16645807 181.64005548 37.48889954 178.33544922 40.80932617 C177.22103455 41.93618835 177.22103455 41.93618835 176.08410645 43.08581543 C172.02950988 47.15916105 167.89480782 51.03351462 163.48254395 54.71862793 C161.64738197 56.26654961 161.64738197 56.26654961 160.56352425 58.41077328 C158.74169922 60.34057617 158.74169922 60.34057617 155.68700218 60.84000492 C153.78850486 60.839691 153.78850486 60.839691 151.85165405 60.83937073 C151.14646373 60.84475528 150.44127342 60.85013984 149.71471369 60.85568756 C147.34494027 60.86899147 144.97619671 60.85379416 142.60644531 60.83886719 C140.90946475 60.84268945 139.21248742 60.8483077 137.51551819 60.85559082 C133.85519562 60.86756362 130.19515978 60.86703425 126.534832 60.85699654 C120.73296555 60.84143738 114.93139324 60.85511708 109.12954712 60.87303162 C97.83928378 60.90389683 86.54910968 60.9053537 75.25881195 60.90338135 C60.9391542 60.90199056 46.61956691 60.91256282 32.29995978 60.95195907 C26.54842273 60.96679264 20.79714694 60.96669571 15.04560637 60.95448124 C11.44033408 60.94972285 7.83515871 60.95736392 4.22990227 60.96802521 C2.57610561 60.97040331 0.92229177 60.9677973 -0.73148537 60.95941734 C-27.44710264 60.83231432 -52.82067526 67.52505535 -72.94580078 85.77807617 C-82.11762788 95.94145214 -86.26214445 105.54834286 -85.63330078 119.41088867 C-84.42106547 132.11410458 -78.36670313 142.22991051 -68.75830078 150.52807617 C-43.64499715 169.26705503 -13.04276887 170.79054293 17.11210847 170.84668708 C20.55939914 170.85623782 24.00656811 170.8824505 27.45378113 170.9066925 C33.9448037 170.94991172 40.43580208 170.9787294 46.92692345 171.00201589 C54.33242005 171.02931066 61.73779145 171.07320415 69.14319766 171.11830461 C84.34263217 171.21051018 99.54209554 171.28189122 114.74169922 171.34057617 C114.74169922 164.08057617 114.74169922 156.82057617 114.74169922 149.34057617 C111.15891113 149.38770752 107.57612305 149.43483887 103.88476562 149.48339844 C92.03063696 149.63270634 80.17644195 149.73246918 68.32164955 149.80688572 C61.13581876 149.85319734 53.95088183 149.91627695 46.765625 150.01953125 C40.49925657 150.10953754 34.2335357 150.16736994 27.96653879 150.18737262 C24.65094209 150.19905778 21.33761788 150.23109625 18.02251053 150.29214668 C14.31142909 150.35775439 10.60414871 150.36646711 6.89257812 150.36230469 C5.80644226 150.39466217 4.7203064 150.42701965 3.60125732 150.46035767 C-4.04047112 150.36798017 -7.70488979 148.11129554 -13.03411293 142.68844509 C-13.76809492 141.91364835 -14.50207691 141.1388516 -15.25830078 140.34057617 C-16.82927334 138.91021464 -18.41110335 137.49159339 -20.00830078 136.09057617 C-24.80107802 131.78161241 -29.51428546 127.39021068 -34.22827148 122.99560547 C-37.17906882 120.25066837 -40.14061099 117.53227 -43.19580078 114.90307617 C-47.92931031 110.82957669 -52.44390863 106.51530592 -56.98071289 102.22558594 C-59.49343193 99.86111374 -61.92496426 97.58473986 -64.71142578 95.54370117 C-65.22189453 95.14666992 -65.73236328 94.74963867 -66.25830078 94.34057617 C-66.25830078 93.68057617 -66.25830078 93.02057617 -66.25830078 92.34057617 C24.82169922 92.34057617 115.90169922 92.34057617 209.74169922 92.34057617 C209.74169922 137.88057617 209.74169922 183.42057617 209.74169922 230.34057617 C152.99054892 230.42118224 152.99054892 230.42118224 129.10693359 230.43823242 C123.65079741 230.44215889 118.19466133 230.44618793 112.73852539 230.45043945 C112.05483657 230.45096695 111.37114774 230.45149445 110.66674107 230.45203793 C99.67813934 230.46069912 88.68955888 230.47644574 77.70096969 230.49488176 C66.3950849 230.51368969 55.08921572 230.52456635 43.78331429 230.52875316 C37.4450393 230.5313451 31.10681229 230.53737414 24.76855278 230.55203629 C18.78418689 230.56576562 12.79988803 230.56976831 6.81550789 230.56679153 C4.63692483 230.56733492 2.45833917 230.57121982 0.2797699 230.57898712 C-19.31361565 230.64532691 -38.82040774 229.82391287 -58.00830078 225.59057617 C-59.22638428 225.32962158 -60.44446777 225.06866699 -61.69946289 224.79980469 C-75.99831127 221.64757789 -89.9533991 217.51599338 -103.25830078 211.34057617 C-103.8407959 211.07051758 -104.42329102 210.80045898 -105.0234375 210.5222168 C-134.64616061 196.63440974 -163.08464309 176.79430543 -175.27001953 145.13745117 C-183.25964542 122.52649412 -183.74399462 98.87585007 -173.91064453 76.76635742 C-168.9212831 66.42198395 -162.14553154 58.52298773 -154.25830078 50.34057617 C-153.68595703 49.70506836 -153.11361328 49.06956055 -152.52392578 48.41479492 C-137.14939671 31.81188853 -115.06492472 22.02226127 -94.25830078 14.34057617 C-93.06591797 13.88038086 -91.87353516 13.42018555 -90.64501953 12.94604492 C-82.57438388 10.01380706 -74.31825076 8.07880262 -65.94580078 6.21557617 C-64.88683594 5.97371582 -63.82787109 5.73185547 -62.73681641 5.48266602 C-42.02671766 1.06769903 -21.11567446 -0.10719244 0 0 Z " fill="#010101" transform="translate(1048.25830078125,844.659423828125)"/>
<path d="M0 0 C109.23 0 218.46 0 331 0 C329.89030253 3.3290924 329.07020264 4.02042432 326.43359375 6.1953125 C322.0860633 9.88641129 318.0687149 13.81970218 314.0625 17.875 C313.33812744 18.60315918 312.61375488 19.33131836 311.86743164 20.08154297 C309.57581697 22.38525646 307.28749348 24.69219474 305 27 C301.98214919 30.04464779 298.96086584 33.08582967 295.9375 36.125 C295.26017822 36.81062012 294.58285645 37.49624023 293.88500977 38.20263672 C290.10927152 41.99743731 286.25881382 45.6091648 282.13931179 49.02990055 C279.94275495 50.94134736 279.94275495 50.94134736 278.24128056 53.28149319 C274.99873242 57.30541159 272.48633573 59.6668934 267.35796928 60.81622505 C262.8174748 61.22401704 258.28268056 61.11476351 253.73022461 61.02172852 C251.98507825 61.01918685 250.23992228 61.02062072 248.49478149 61.02571106 C243.77767033 61.02828446 239.06263543 60.9755228 234.3460052 60.91254544 C229.40937234 60.85613123 224.47268733 60.85098498 219.53578186 60.84031677 C210.19643387 60.8123879 200.85803854 60.73859377 191.51910931 60.64817137 C180.88320406 60.54743548 170.24725235 60.49805576 159.6109885 60.45291245 C137.74011369 60.35893966 115.87015055 60.19890292 94 60 C94 67.92 94 75.84 94 84 C167.59 84 241.18 84 317 84 C312.9774961 88.69292121 309.15769759 92.84932228 304.625 96.9375 C296.31382057 104.55042398 288.39593676 112.54417393 280.47705078 120.56030273 C275.77016408 125.31318803 271.0780788 130.02276715 265.90220737 134.27396297 C263.97538137 135.9083298 263.97538137 135.9083298 262.6599493 137.8172617 C260.04899414 141.21991907 258.03123384 142.7981904 253.7647419 143.63313103 C249.574387 143.86354061 245.43612581 143.86683188 241.24243164 143.79467773 C239.6355091 143.79270156 238.02858025 143.79381478 236.42166138 143.79777527 C232.0724833 143.79977935 227.72466345 143.75869816 223.37580037 143.70975757 C218.82616055 143.66592416 214.27648772 143.66188063 209.72666931 143.65357971 C201.11698127 143.63184451 192.50791727 143.57443091 183.89850372 143.50413328 C174.09450502 143.42582362 164.29047613 143.38738671 154.48624241 143.35226524 C134.32380422 143.27914623 114.16196345 143.15465002 94 143 C94 152.24 94 161.48 94 171 C172.54 171 251.08 171 332 171 C328.11981519 175.52688228 324.78146441 179.27097904 320.421875 183.140625 C316.04218922 187.08043193 311.79345659 191.11852874 307.640625 195.296875 C307.11448608 195.82623657 306.58834717 196.35559814 306.04626465 196.90100098 C304.44555506 198.51541381 302.84732571 200.13223942 301.25 201.75 C288.61583678 214.54365671 288.61583678 214.54365671 283.02654165 219.16774088 C280.92959409 220.98704218 280.92959409 220.98704218 279.06154019 223.25266117 C275.29825998 227.55709033 272.49089692 230.51206416 266.64464474 231.10743046 C264.62727241 231.14487614 262.60860675 231.13352355 260.59153748 231.08229065 C259.47312141 231.08998047 258.35470534 231.0976703 257.20239788 231.10559314 C253.47010143 231.12037 249.74147994 231.0710065 246.00952148 231.02172852 C243.32834198 231.01918874 240.64738468 231.02022089 237.9662323 231.02571106 C232.20215038 231.03041885 226.43898888 231.00230437 220.67513847 230.95157051 C212.34185823 230.87826827 204.00902076 230.85497166 195.67545307 230.84367859 C182.15341921 230.82400545 168.63187538 230.76417858 155.11010742 230.67895508 C141.97894698 230.59627977 128.84792056 230.53270892 115.71655273 230.49438477 C114.89820389 230.49197279 114.07985504 230.48956081 113.23670775 230.48707575 C106.83620002 230.46835975 100.43568938 230.45074785 94.03517759 230.43348467 C62.68966854 230.34865854 31.34538691 230.16757814 0 230 C0 154.1 0 78.2 0 0 Z " fill="#000000" transform="translate(516,845)"/>
<path d="M0 0 C2.80994055 0.01923997 5.61981792 0.02312291 8.42981529 0.02685833 C26.59916402 0.05319588 44.51191858 0.32577542 62.52337646 2.95178223 C64.30131592 3.20907104 64.30131592 3.20907104 66.11517334 3.47155762 C79.30183747 5.45876774 92.28613947 8.25992295 105.27337646 11.26428223 C106.19054443 11.47166016 107.1077124 11.67903809 108.05267334 11.8927002 C121.18057334 14.87653969 133.84242395 18.9573931 146.56488037 23.3404541 C148.98580306 24.16619517 151.41241473 24.96617363 153.84759521 25.74865723 C154.5220166 25.96650879 155.19643799 26.18436035 155.89129639 26.40881348 C157.61156207 26.96222623 159.33303358 27.51188712 161.05462646 28.06115723 C164.22035428 29.24446326 167.11644589 30.65745026 170.11712646 32.19787598 C174.00226494 34.11933033 178.02421843 35.72240248 182.02337646 37.38928223 C213.17759481 50.59805465 242.18120078 68.04692669 269.27337646 88.26428223 C269.87375732 88.71013672 270.47413818 89.15599121 271.0927124 89.61535645 C283.20989213 98.64595372 294.533471 108.55950976 305.61322021 118.82287598 C307.77856353 120.81015875 309.97182402 122.73678881 312.21087646 124.63928223 C320.16458151 131.54469561 327.68832387 139.17176911 334.49212646 147.20959473 C336.71990164 149.77935294 339.06497483 152.22757187 341.39837646 154.70178223 C347.66561937 161.4490323 353.16017209 168.74606054 358.66351318 176.1192627 C360.1958352 178.16096442 361.74786311 180.18560977 363.30853271 182.20568848 C375.23277348 197.71640258 385.63894787 214.24966942 395.27337646 231.26428223 C395.7356665 232.07526367 396.19795654 232.88624512 396.67425537 233.72180176 C402.92037835 244.73124523 408.67660152 255.91469793 414.02337646 267.38928223 C414.54915283 268.5100415 415.0749292 269.63080078 415.61663818 270.78552246 C416.09633057 271.83296631 416.57602295 272.88041016 417.07025146 273.95959473 C417.49660889 274.88788086 417.92296631 275.81616699 418.36224365 276.77258301 C419.27337646 279.26428223 419.27337646 279.26428223 419.27337646 283.26428223 C418.61337646 283.26428223 417.95337646 283.26428223 417.27337646 283.26428223 C416.98317627 282.6326416 416.69297607 282.00100098 416.39398193 281.35021973 C402.98584971 252.35062872 386.82276747 225.51768219 367.27337646 200.26428223 C366.54247803 199.31811035 365.81157959 198.37193848 365.05853271 197.39709473 C361.11097934 192.37862093 356.95498093 187.5912527 352.64447021 182.88146973 C351.36409924 181.46821017 350.08954999 180.04906074 348.85101318 178.59899902 C343.86248278 172.77103077 338.51710047 167.32185955 333.09564209 161.90124512 C331.5347732 160.33819489 329.98209759 158.76730857 328.42962646 157.19592285 C322.03531581 150.76622996 315.38465973 144.90672325 308.27337646 139.26428223 C307.24568474 138.40106263 306.22226571 137.53267337 305.20697021 136.65490723 C271.36822159 107.63513533 230.55923104 84.64046733 188.72650146 69.52990723 C185.90551768 68.49597199 183.15819589 67.38456198 180.39837646 66.20178223 C173.6670356 63.4777279 166.6024421 61.77525478 159.59954834 59.90100098 C157.44456171 59.31113898 155.30388906 58.68770566 153.16400146 58.04553223 C134.70584418 52.56267153 115.6152327 48.87390677 96.52337646 46.45178223 C95.6460083 46.34011719 94.76864014 46.22845215 93.86468506 46.11340332 C77.2983757 44.19093877 60.61788326 44.02396224 43.96087646 44.01428223 C42.90645355 44.01360748 41.85203064 44.01293274 40.76565552 44.01223755 C23.75126341 44.02944964 7.12419282 44.72650868 -9.72662354 47.26428223 C-11.48764404 47.52169189 -11.48764404 47.52169189 -13.28424072 47.78430176 C-57.18169959 54.34955924 -99.19468954 67.88583601 -138.64312744 88.19592285 C-140.81454659 89.30936675 -142.99501611 90.40376848 -145.17584229 91.49865723 C-173.89576988 106.08126786 -200.63998665 125.24413554 -224.32037354 147.06896973 C-225.67568822 148.30547436 -227.03965226 149.53311128 -228.43145752 150.72839355 C-234.14395125 155.63453553 -239.47802032 160.86666498 -244.78912354 166.20178223 C-245.64828369 167.0570752 -246.50744385 167.91236816 -247.39263916 168.7935791 C-269.26483931 190.69919744 -288.41181765 216.37068455 -303.72662354 243.26428223 C-304.09593994 243.90816895 -304.46525635 244.55205566 -304.84576416 245.2154541 C-312.73173213 258.98567075 -320.06945673 272.84042082 -326.72662354 287.26428223 C-356.42662354 287.26428223 -386.12662354 287.26428223 -416.72662354 287.26428223 C-415.95319506 283.39713984 -415.1836612 280.67545899 -413.64459229 277.15100098 C-413.21372314 276.16293457 -412.782854 275.17486816 -412.33892822 274.15686035 C-411.6336499 272.57034668 -411.6336499 272.57034668 -410.91412354 270.95178223 C-410.42202393 269.84383301 -409.92992432 268.73588379 -409.4229126 267.59436035 C-396.74973697 239.33021281 -381.69159979 212.64422571 -363.53912354 187.51428223 C-362.71782959 186.37720825 -362.71782959 186.37720825 -361.87994385 185.21716309 C-356.57407098 177.94164004 -350.9385209 170.96164927 -345.1885376 164.03479004 C-343.83055596 162.39015363 -342.48955282 160.73368626 -341.15631104 159.06896973 C-337.42859006 154.43143211 -333.6542641 150.04279472 -329.37506104 145.90881348 C-327.72397223 144.2616372 -326.23020227 142.54644281 -324.72662354 140.76428223 C-317.06972421 131.89200205 -308.54736019 123.40747332 -299.58990479 115.85021973 C-297.37191169 113.96236816 -295.24420198 111.9872543 -293.10162354 110.01428223 C-287.44402703 104.91118216 -281.48082182 100.25019596 -275.44976807 95.60217285 C-273.8826324 94.38541124 -272.3328884 93.14633267 -270.78521729 91.90490723 C-255.44737991 79.73266877 -238.76789896 68.90258345 -221.72662354 59.26428223 C-220.94738525 58.82197266 -220.16814697 58.37966309 -219.36529541 57.9239502 C-199.21273616 46.5525881 -178.54419561 36.05136528 -156.72662354 28.26428223 C-155.13358398 27.68831299 -155.13358398 27.68831299 -153.50836182 27.10070801 C-138.23346148 21.60174389 -122.96942131 16.68046632 -107.18658447 12.86828613 C-104.9328944 12.31492873 -102.69269361 11.72758704 -100.45318604 11.11975098 C-92.29504464 8.92848982 -84.18058611 7.44057692 -75.81378174 6.3026123 C-75.02318359 6.19457275 -74.23258545 6.0865332 -73.41802979 5.97521973 C-72.72910645 5.88546875 -72.04018311 5.79571777 -71.3303833 5.70324707 C-69.09772749 5.32684621 -66.94713787 4.84511692 -64.74664307 4.32043457 C-43.62731717 -0.42270878 -21.52747566 -0.17611719 0 0 Z " fill="#020202" transform="translate(958.7266235351563,518.7357177734375)"/>
<path d="M0 0 C29.7 0 59.4 0 90 0 C92.64 5.28 95.28 10.56 98 16 C111.32477294 42.30479108 126.36305266 67.09118051 145 90 C145.78117188 90.97453125 146.56234375 91.9490625 147.3671875 92.953125 C151.64649132 98.25413112 156.06736485 103.38978033 160.6640625 108.41796875 C161.95698569 109.84710291 163.24309686 111.28284108 164.49926758 112.74438477 C169.24384145 118.26195487 174.28087058 123.43044546 179.4375 128.5625 C180.24509766 129.37396484 181.05269531 130.18542969 181.88476562 131.02148438 C207.57331046 156.66862946 238.06991289 177.80814568 269.98730469 194.91357422 C271.85992044 195.92438694 273.71666306 196.95882969 275.5703125 198.00390625 C291.61126759 206.88564313 308.63225608 214.15528618 326 220 C327.21042969 220.45503906 328.42085937 220.91007812 329.66796875 221.37890625 C365.9390571 234.99686726 407.49379512 243.21511402 446.2578125 243.1328125 C447.28574921 243.13376923 448.31368591 243.13472595 449.37277222 243.13571167 C451.53236961 243.1363869 453.6919691 243.13457893 455.8515625 243.13037109 C459.09640247 243.12504692 462.34110193 243.13032159 465.5859375 243.13671875 C481.23663337 243.14254816 496.89886395 242.94280299 512.4375 240.875 C513.36159668 240.75229736 514.28569336 240.62959473 515.23779297 240.50317383 C536.59458828 237.48144011 558.01690027 233.18012175 578.60839844 226.73828125 C581.16027067 225.95052486 583.72220647 225.20614794 586.2890625 224.46875 C595.46654678 221.81850868 604.26755104 218.900026 613 215 C614.66433109 214.29313456 616.32981245 213.58897465 617.99609375 212.88671875 C650.96204743 198.91426131 681.62568248 181.87186976 710 160 C710.56460938 159.566875 711.12921875 159.13375 711.7109375 158.6875 C718.5355322 153.44239665 725.19543466 148.11039853 731.5234375 142.265625 C732.88201073 141.02276621 734.24836261 139.7875909 735.64770508 138.59082031 C741.48174125 133.59773306 746.93708448 128.24906303 752.36303711 122.82226562 C753.92608734 121.26139673 755.49697365 119.70872112 757.06835938 118.15625 C763.49707558 111.7634226 769.37927222 105.12738034 775 98 C776.01326187 96.75718419 777.02858962 95.51604696 778.046875 94.27734375 C798.72825683 68.8221842 815.58999744 41.41903526 830 12 C830.99818882 9.99909543 831.99754827 7.99877226 833 6 C833.66 6 834.32 6 835 6 C830.06885866 41.87583986 797.67151687 81.88559974 776 110 C775.3503125 110.84691406 775.3503125 110.84691406 774.6875 111.7109375 C769.36740045 118.63311249 763.93991461 125.36083982 758.02734375 131.79296875 C756.24958586 133.72829285 754.52423748 135.69403016 752.8125 137.6875 C749.29383211 141.72531561 745.65035942 145.64411891 742 149.5625 C741.41839111 150.18793701 740.83678223 150.81337402 740.23754883 151.45776367 C729.95002127 162.46225254 729.95002127 162.46225254 724.25 167.3125 C721.05814878 170.05798122 717.96081173 172.88589615 714.875 175.75 C709.12361764 180.98786608 703.09113107 185.78340762 696.92285156 190.51855469 C694.92694116 192.05628759 692.94353559 193.60921349 690.9609375 195.1640625 C655.58112072 222.7635476 616.06861776 243.85947689 574.20849609 259.77636719 C571.39920008 260.84775599 568.59886829 261.93884649 565.80078125 263.0390625 C554.69427608 267.34762054 543.40767204 270.48215573 531.84033203 273.3046875 C529.12762801 273.9687567 526.42108122 274.65387503 523.71484375 275.34375 C511.51434909 278.4056858 499.24436496 280.62894577 486.81591797 282.54833984 C485.00395017 282.83897106 483.19510292 283.15019322 481.39111328 283.48681641 C461.42090612 287.15379348 441.20791315 287.40173013 420.96549225 287.3771553 C418.85147816 287.37497575 416.73748814 287.37652372 414.62347412 287.37838745 C358.77315547 287.38657774 358.77315547 287.38657774 348 282 C346.11548879 281.74146728 344.23029951 281.48721143 342.3425293 281.25366211 C320.81459735 278.4953093 299.73400081 272.41860148 279.125 265.75 C278.48114349 265.54180634 277.83728699 265.33361267 277.17391968 265.11911011 C269.66508949 262.67629821 262.29063637 260.03040724 255 257 C253.58205613 256.42702177 252.16408788 255.85410384 250.74609375 255.28125 C222.50332993 243.68189391 195.65813733 229.66577913 170.25 212.75 C169.63001129 212.33806396 169.01002258 211.92612793 168.37124634 211.50170898 C155.68270663 203.03944318 143.72547819 193.75480959 132 184 C130.52660156 182.78957031 130.52660156 182.78957031 129.0234375 181.5546875 C114.09467352 169.19645469 99.38128819 155.78911079 86.76953125 141.05078125 C84.76213977 138.72433417 82.69533362 136.45807314 80.625 134.1875 C62.2579819 113.77626066 45.53487258 90.89788772 32 67 C31.60361328 66.30197266 31.20722656 65.60394531 30.79882812 64.88476562 C28.22942659 60.34321813 25.70454021 55.77888164 23.20556641 51.19824219 C22.0922931 49.16828819 20.9605821 47.14989642 19.82421875 45.1328125 C14.59623871 35.71002645 10.221839 25.94064119 5.9375 16.0625 C5.6416098 15.38199585 5.3457196 14.7014917 5.04086304 14.00036621 C4.197873 12.0557952 3.36115883 10.10867672 2.52734375 8.16015625 C2.03999756 7.02199463 1.55265137 5.88383301 1.05053711 4.71118164 C0 2 0 2 0 0 Z " fill="#020202" transform="translate(542,1114)"/>
<path d="M0 0 C2.46830344 0.36453245 3.66764653 0.57947511 5.24511719 2.57543945 C5.7657373 3.58417114 5.7657373 3.58417114 6.296875 4.61328125 C6.69406738 5.36085693 7.09125977 6.10843262 7.50048828 6.87866211 C8.11899658 8.08341187 8.11899658 8.08341187 8.75 9.3125 C9.63419075 10.96819691 10.52223106 12.62184365 11.4140625 14.2734375 C11.85137695 15.08393555 12.28869141 15.89443359 12.73925781 16.72949219 C17.68975567 25.64498988 23.94421436 33.81775528 30 42 C30.67546875 42.93328125 31.3509375 43.8665625 32.046875 44.828125 C37.81826813 52.70586599 44.10176849 60.04594693 50.55957031 67.36425781 C52.8712111 69.98934142 55.15094756 72.64212951 57.4375 75.2890625 C84.59446699 105.02594136 119.72546954 128.80626841 155.92919922 146.01416016 C157.3301208 146.68109264 158.727518 147.35547082 160.12158203 148.03662109 C193.47573335 164.27961047 230.17340312 173.96762303 267 178 C267.72283173 178.08506302 268.44566345 178.17012604 269.19039917 178.25776672 C275.76214122 178.98647722 282.26634556 179.17632561 288.875 179.203125 C289.99777344 179.20882507 291.12054687 179.21452515 292.27734375 179.22039795 C294.65070672 179.22980237 297.02408249 179.23636368 299.39746094 179.24023438 C302.93449506 179.24982243 306.47091723 179.28084108 310.0078125 179.3125 C325.87514149 179.38554508 341.28891169 178.17029036 357 176 C358.91794845 175.74325652 360.83591643 175.48665888 362.75390625 175.23022461 C373.04504446 173.84836431 383.00856943 171.81207204 393 169 C393.72525879 168.80067871 394.45051758 168.60135742 395.19775391 168.39599609 C442.77595524 155.2209623 486.64109152 133.10609065 525 102 C525.89960449 101.27393555 525.89960449 101.27393555 526.81738281 100.53320312 C535.4720481 93.47493751 543.45784671 85.74097948 551.375 77.875 C552.74821411 76.51580444 552.74821411 76.51580444 554.14916992 75.12915039 C560.19122665 69.05854419 565.6685225 62.69781627 571 56 C572.00060052 54.79152609 573.00404567 53.58539536 574.01171875 52.3828125 C579.739433 45.4527395 585.00021248 38.28539794 590 30.8125 C590.52037842 30.03729004 591.04075684 29.26208008 591.5769043 28.46337891 C592.10840088 27.65690918 592.63989746 26.85043945 593.1875 26.01953125 C593.80012695 25.14603027 594.41275391 24.2725293 595.04394531 23.37255859 C596.72945897 20.46645704 597.68918535 18.06535844 598.72949219 14.91259766 C601.04096756 8.80968264 603.45811004 3.72404753 609 0 C620.73607081 -3.23567844 633.48945285 -1.97360863 645.51824951 -1.37329102 C650.08193937 -1.1673198 654.64782984 -1.07707431 659.21484375 -0.9765625 C668.14905357 -0.76311931 677.07340921 -0.42264784 686 0 C676.3241366 20.76890574 676.3241366 20.76890574 671.6875 28.5625 C671.23584473 29.33150635 670.78418945 30.1005127 670.31884766 30.89282227 C662.65715003 43.78270266 654.22364977 56.17838461 645 68 C644.36964844 68.81210938 643.73929688 69.62421875 643.08984375 70.4609375 C625.60176293 92.65320433 606.25514553 113.51990485 584 131 C582.61588041 132.1028583 581.23176627 133.20572344 579.84765625 134.30859375 C570.52571787 141.69336236 561.07785369 148.68253948 551 155 C550.26620117 155.46083984 549.53240234 155.92167969 548.77636719 156.39648438 C499.03218114 187.40638479 445.01654749 206.56026165 387 214 C386.34993988 214.09109039 385.69987976 214.18218079 385.03012085 214.27603149 C370.89201822 216.25305696 356.8201419 216.35949782 342.5625 216.3125 C341.36046936 216.31001251 340.15843872 216.30752502 338.91998291 216.30496216 C321.76530536 216.24997647 304.93148473 216.01294344 288 213 C287.31224487 212.87886841 286.62448975 212.75773682 285.91589355 212.63293457 C269.43908701 209.72000188 253.11743072 206.52313189 237 202 C236.03328369 201.72889404 235.06656738 201.45778809 234.07055664 201.1784668 C229.15786051 199.77980041 224.49024686 198.02625216 219.7734375 196.07421875 C216.69757201 194.8828624 213.58698279 193.91773228 210.4375 192.9375 C190.97007673 186.64071136 172.69694119 177.14588017 155 167 C154.19498047 166.54173828 153.38996094 166.08347656 152.56054688 165.61132812 C144.08683227 160.77422012 135.88623383 155.75781191 128 150 C126.34582564 148.8370653 124.69163313 147.67415631 123.03710938 146.51171875 C112.07463413 138.77209142 101.51570571 130.64165484 91.6953125 121.484375 C89.59382074 119.54734781 87.46677156 117.67502929 85.30078125 115.8125 C73.22509026 105.27959339 61.79129528 93.68705729 52 81 C51.01833471 79.80268908 50.03229517 78.60895717 49.04296875 77.41796875 C0 18.29899317 0 18.29899317 0 0 Z " fill="#020202" transform="translate(661,1114)"/>
<path d="M0 0 C1.56639221 0.00273422 1.56639221 0.00273422 3.16442871 0.00552368 C98.87159374 0.28523599 190.53456237 34.70428023 261.4921875 99.2734375 C263.52984192 101.11367211 265.60006387 102.90430558 267.6875 104.6875 C274.9532798 111.02667225 281.75157007 117.95518979 288.0078125 125.2890625 C290.04285455 127.65263151 292.14600844 129.94765233 294.25 132.25 C298.32481509 136.78288994 302.11689428 141.41991763 305.75 146.3125 C306.1929541 146.90466309 306.6359082 147.49682617 307.09228516 148.10693359 C346.75 201.30884341 346.75 201.30884341 346.75 216.3125 C337.03227227 216.75445705 327.31803828 217.09110825 317.59242535 217.29693127 C313.07483331 217.39577552 308.56414946 217.52949905 304.05053711 217.74584961 C274.8852111 219.10812103 274.8852111 219.10812103 268.07955933 214.50714111 C264.11227238 210.12612238 262.17695927 205.293547 260.54534912 199.67935181 C259.29957107 195.97208421 257.193106 192.97403363 254.9375 189.8125 C254.11375938 188.60472822 253.29075255 187.39645537 252.46875 186.1875 C239.66018061 167.83492297 225.88481876 151.2960547 210.125 135.4375 C209.59578949 134.90284119 209.06657898 134.36818237 208.52133179 133.81732178 C201.60280854 126.84585646 194.48962561 120.38273535 186.75 114.3125 C186.05213379 113.75530273 185.35426758 113.19810547 184.63525391 112.62402344 C168.94096646 100.14917829 152.3603656 88.80084486 134.66845703 79.34814453 C132.74168029 78.30800875 130.83737059 77.23391394 128.93359375 76.15234375 C116.08314017 68.96657991 102.44772543 63.65286427 88.75 58.3125 C87.68773193 57.89327271 87.68773193 57.89327271 86.60400391 57.46557617 C62.80436764 48.26506794 38.00452669 42.53077597 12.75 39.3125 C12.05754181 39.22282959 11.36508362 39.13315918 10.65164185 39.04077148 C-3.16281275 37.30266261 -16.87335335 37.00144996 -30.78637695 37.05175781 C-34.31153512 37.06249706 -37.83618509 37.051786 -41.36132812 37.0390625 C-68.34209547 37.02252119 -93.35610204 41.10405694 -119.48291016 47.62646484 C-121.71835034 48.18068991 -123.95615392 48.71620415 -126.19921875 49.23828125 C-181.7614051 62.85456617 -231.18831045 94.4976936 -272.6875 133.0625 C-273.3379126 133.66433105 -273.9883252 134.26616211 -274.65844727 134.88623047 C-278.56710544 138.5593547 -282.16518669 142.39444811 -285.65795898 146.46435547 C-287.72968208 148.86934609 -289.89694946 151.17950377 -292.0625 153.5 C-297.51816172 159.49214888 -302.43225318 165.80958789 -307.25 172.3125 C-308.04019531 173.36824219 -308.83039062 174.42398438 -309.64453125 175.51171875 C-319.17255065 188.42949571 -327.58286659 202.21941583 -335.25 216.3125 C-336.24 215.9825 -337.23 215.6525 -338.25 215.3125 C-323.2633027 183.78518518 -303.93120237 153.505338 -279.84765625 128.0859375 C-277.83505477 125.93714495 -275.90105273 123.7639244 -273.98046875 121.53515625 C-270.00052051 116.96572562 -265.786034 112.65647245 -261.5 108.375 C-260.70432617 107.58013184 -259.90865234 106.78526367 -259.08886719 105.96630859 C-254.22587642 101.15374738 -249.32206479 96.63862489 -243.92578125 92.4296875 C-241.34807227 90.39009879 -238.88909709 88.26159521 -236.42529297 86.08813477 C-199.72968815 53.87250755 -152.54543151 29.29417566 -105.65380859 16.01879883 C-102.77809878 15.17384367 -99.92712619 14.25831283 -97.0703125 13.3515625 C-90.32544019 11.26927584 -83.53166269 9.69275085 -76.625 8.25 C-75.40296875 7.99250977 -74.1809375 7.73501953 -72.921875 7.46972656 C-48.67349294 2.43499671 -24.7730544 -0.09029524 0 0 Z " fill="#020202" transform="translate(999.25,589.6875)"/>
<path d="M0 0 C31.35 0 62.7 0 95 0 C95 76.56 95 153.12 95 232 C63.65 232 32.3 232 0 232 C0 155.44 0 78.88 0 0 Z " fill="#020202" transform="translate(1310,844)"/>
<path d="M0 0 C2.46830344 0.36453245 3.66764653 0.57947511 5.24511719 2.57543945 C5.7657373 3.58417114 5.7657373 3.58417114 6.296875 4.61328125 C6.69406738 5.36085693 7.09125977 6.10843262 7.50048828 6.87866211 C8.11899658 8.08341187 8.11899658 8.08341187 8.75 9.3125 C9.63419075 10.96819691 10.52223106 12.62184365 11.4140625 14.2734375 C11.85137695 15.08393555 12.28869141 15.89443359 12.73925781 16.72949219 C17.17253964 24.71352026 22.70006126 32.0306663 28.1015625 39.375 C30.8494913 43.17460526 33.43971131 47.07228439 36 51 C35.01 51.33 34.02 51.66 33 52 C32.67 52.99 32.34 53.98 32 55 C0 14.58912387 0 14.58912387 0 0 Z " fill="#161616" transform="translate(661,1114)"/>
<path d="M0 0 C1.32 0 2.64 0 4 0 C11.36306275 13.27781565 18.48036259 26.60328699 24.875 40.375 C25.39223633 41.4789209 25.90947266 42.5828418 26.44238281 43.72021484 C26.91256836 44.74840332 27.38275391 45.7765918 27.8671875 46.8359375 C28.28081543 47.73876465 28.69444336 48.6415918 29.12060547 49.57177734 C30 52 30 52 30 56 C29.34 56 28.68 56 28 56 C27.56469971 55.05253906 27.56469971 55.05253906 27.12060547 54.0859375 C19.13696808 36.81863918 10.5717042 19.85755629 0 4 C0 2.68 0 1.36 0 0 Z " fill="#191919" transform="translate(1348,746)"/>
<path d="M0 0 C0.66 0 1.32 0 2 0 C1.32247018 4.92927494 -0.64852737 9.13665881 -2.6875 13.625 C-3.07180176 14.47441162 -3.45610352 15.32382324 -3.85205078 16.19897461 C-7.48271667 24.09352939 -11.39548176 31.83993458 -15.375 39.5625 C-15.68118256 40.16048401 -15.98736511 40.75846802 -16.30282593 41.37457275 C-17.18223151 43.08777092 -18.07140911 44.79594214 -18.9609375 46.50390625 C-19.47446777 47.49205322 -19.98799805 48.4802002 -20.51708984 49.49829102 C-21.83857599 51.72767339 -23.07000518 53.29623827 -25 55 C-26.32 54.34 -27.64 53.68 -29 53 C-28.69408936 52.49887695 -28.38817871 51.99775391 -28.07299805 51.48144531 C-17.89945149 34.77493244 -7.77764767 17.98375916 0 0 Z " fill="#141414" transform="translate(1375,1120)"/>
<path d="M0 0 C0.66 0.33 1.32 0.66 2 1 C-10.66666667 13.66666667 -23.33333333 26.33333333 -36 39 C-36.66 38.34 -37.32 37.68 -38 37 C-37.35160156 36.42378906 -36.70320312 35.84757813 -36.03515625 35.25390625 C-23.55016897 23.99921545 -11.83659685 11.92653008 0 0 Z " fill="#DCDCDC" transform="translate(821,940)"/>
<path d="M0 0 C1.32 0 2.64 0 4 0 C2.71075644 3.40202433 1.2347924 6.50564554 -0.6015625 9.64453125 C-1.09140625 10.48564453 -1.58125 11.32675781 -2.0859375 12.19335938 C-2.84777344 13.48983398 -2.84777344 13.48983398 -3.625 14.8125 C-4.140625 15.69615234 -4.65625 16.57980469 -5.1875 17.49023438 C-6.45531114 19.66194789 -7.72622348 21.8317818 -9 24 C-9.99 23.67 -10.98 23.34 -12 23 C-10.37828376 19.72752852 -8.7520638 16.45731555 -7.125 13.1875 C-6.43470703 11.7943457 -6.43470703 11.7943457 -5.73046875 10.37304688 C-5.28574219 9.48037109 -4.84101562 8.58769531 -4.3828125 7.66796875 C-3.97434082 6.84578857 -3.56586914 6.0236084 -3.14501953 5.17651367 C-2 3 -2 3 0 0 Z " fill="#1F1F1F" transform="translate(673,782)"/>
<path d="M0 0 C0.66 0 1.32 0 2 0 C1.05308386 5.48297937 -1.06637309 10.1899253 -3.3125 15.25 C-3.70373047 16.17296875 -4.09496094 17.0959375 -4.49804688 18.046875 C-5.08102539 19.36171875 -5.08102539 19.36171875 -5.67578125 20.703125 C-6.02552002 21.50395508 -6.37525879 22.30478516 -6.7355957 23.12988281 C-8 25 -8 25 -10.14526367 25.76855469 C-11.06335815 25.88312012 -11.06335815 25.88312012 -12 26 C-10.45855765 20.70181838 -8.06684369 16.12673275 -5.4375 11.3125 C-4.62162942 9.80971491 -3.8077421 8.30585095 -2.99609375 6.80078125 C-2.63700928 6.14247314 -2.2779248 5.48416504 -1.90795898 4.8059082 C-0.86978671 2.8487158 -0.86978671 2.8487158 0 0 Z " fill="#1F1F1F" transform="translate(1375,1120)"/>
<path d="M0 0 C4 1 4 1 5.28027344 2.58227539 C5.63637695 3.24735107 5.99248047 3.91242676 6.359375 4.59765625 C6.75253906 5.31630859 7.14570312 6.03496094 7.55078125 6.77539062 C7.94652344 7.53013672 8.34226562 8.28488281 8.75 9.0625 C9.16121094 9.82111328 9.57242188 10.57972656 9.99609375 11.36132812 C11.00926383 13.23451468 12.0062056 15.11646233 13 17 C11.02 17.99 11.02 17.99 9 19 C6.03 12.73 3.06 6.46 0 0 Z " fill="#202020" transform="translate(661,1114)"/>
<path d="M0 0 C1 3 1 3 -0.21484375 5.91796875 C-0.78332031 6.99691406 -1.35179687 8.07585937 -1.9375 9.1875 C-2.50339844 10.27417969 -3.06929687 11.36085938 -3.65234375 12.48046875 C-4.09707031 13.31191406 -4.54179688 14.14335938 -5 15 C-8 15 -8 15 -10 14 C-8.90437286 12.0368763 -7.79819451 10.07963837 -6.6875 8.125 C-6.07261719 7.03445313 -5.45773437 5.94390625 -4.82421875 4.8203125 C-3 2 -3 2 0 0 Z " fill="#1D1D1D" transform="translate(1365,1144)"/>
<path d="M0 0 C2.41018108 2.9968234 4.08914691 6.00570256 5.6875 9.5 C6.12449219 10.4384375 6.56148437 11.376875 7.01171875 12.34375 C8 15 8 15 8 19 C7.34 19 6.68 19 6 19 C4.79783666 16.58967749 3.61325022 14.17316521 2.4375 11.75 C1.92413086 10.72712891 1.92413086 10.72712891 1.40039062 9.68359375 C-0.38030356 5.97831091 -1.3058334 3.92128522 0 0 Z " fill="#2B2B2B" transform="translate(1370,783)"/>
<path d="M0 0 C0.66 0 1.32 0 2 0 C1.34580901 5.06998019 -0.8546409 9.41990777 -3 14 C-3.66 13.67 -4.32 13.34 -5 13 C-4.39254603 8.14036821 -2.27241033 4.2594482 0 0 Z " fill="#292929" transform="translate(1375,1120)"/>
<path d="M0 0 C0.66 0.66 1.32 1.32 2 2 C-2.62 6.62 -7.24 11.24 -12 16 C-12.66 15.67 -13.32 15.34 -14 15 C-12.73542969 13.75283203 -12.73542969 13.75283203 -11.4453125 12.48046875 C-10.33840925 11.38294603 -9.2316457 10.28528241 -8.125 9.1875 C-7.56941406 8.64029297 -7.01382812 8.09308594 -6.44140625 7.52929688 C-5.90644531 6.99755859 -5.37148437 6.46582031 -4.8203125 5.91796875 C-4.32805176 5.43094482 -3.83579102 4.9439209 -3.32861328 4.44213867 C-1.77411511 2.82996499 -1.77411511 2.82996499 0 0 Z " fill="#282828" transform="translate(1225,1178)"/>
<path d="M0 0 C2.25245881 2.68841859 3.88213958 4.64641875 5 8 C3.68 8.33 2.36 8.66 1 9 C-0.61949011 6.42786866 -1.04408751 5.32330841 -0.625 2.25 C-0.41875 1.5075 -0.2125 0.765 0 0 Z " fill="#262626" transform="translate(669,1124)"/>
<path d="M0 0 C0.66 0.99 1.32 1.98 2 3 C-0.97 5.475 -0.97 5.475 -4 8 C-4.66 7.67 -5.32 7.34 -6 7 C-4.02 4.69 -2.04 2.38 0 0 Z " fill="#CECECE" transform="translate(1296,1193)"/>
<path d="M0 0 C0.33 0.99 0.66 1.98 1 3 C0.01 4.485 0.01 4.485 -1 6 C-1.99 6 -2.98 6 -4 6 C-3.6875 4.125 -3.6875 4.125 -3 2 C-2.01 1.34 -1.02 0.68 0 0 Z " fill="#141414" transform="translate(1365,1144)"/>
<path d="M0 0 C0.66 0.33 1.32 0.66 2 1 C-0.31 3.31 -2.62 5.62 -5 8 C-5.66 7.34 -6.32 6.68 -7 6 C-4.69 4.02 -2.38 2.04 0 0 Z " fill="#DBDBDB" transform="translate(981,924)"/>
<path d="M0 0 C0.33 0.99 0.66 1.98 1 3 C-0.9375 5.6875 -0.9375 5.6875 -3 8 C-3.1875 5.125 -3.1875 5.125 -3 2 C-2.01 1.34 -1.02 0.68 0 0 Z " fill="#171717" transform="translate(671,789)"/>
</svg>
